# xmcd
#
# Track frame offsets: 
#        150
#        13537
#        29367
#        40880
#        54652
#        65802
#        77900
#        91775
#        103800
#        115695
#
# Disc length: 1730 seconds
#
# Revision: 2
# Processed by: cddbd v1.5.1PL0 Copyright (c) Steve Scherf et al.
# Submitted via: ExactAudioCopy v0.95a5
#
DISCID=7d06c00a
DTITLE=Bill Monroe - Cryin' Holy Unto the Lord
DYEAR=1991
DGENRE=Bluegrass
TTITLE0=Cryin' Holy Unto the Lord
TTITLE1=Harbor of Love
TTITLE2=Shine Hallelujah Shine
TTITLE3=Just Over in the Glory Land
TTITLE4=Just a Little Talk With Jesus
TTITLE5=You're Drifting Away
TTITLE6=He'll Take You In
TTITLE7=This World is Not My Home
TTITLE8=Baptize Me in the Cumberland River
TTITLE9=Are You Lost in Sin?
EXTD=
EXTT0=
EXTT1=
EXTT2=
EXTT3=
EXTT4=
EXTT5=
EXTT6=
EXTT7=
EXTT8=
EXTT9=
PLAYORDER=
